<svg id="Icon" xmlns="http://www.w3.org/2000/svg" viewBox="0 0 20 14.55"><defs><style>.cls-1{fill-rule:evenodd;}</style></defs><title>potato</title><path class="cls-1" d="M17.33,8.53a8.63,8.63,0,0,0-7.27-4c-5.71,0-7.39,4-7.77,5-0.78,2-.71,9.19,9.73,9.54C26.12,18.12,22.72,8.69,17.33,8.53Zm-9,8.16A0.69,0.69,0,1,1,9,16,0.69,0.69,0,0,1,8.29,16.69Zm-1-5.34A0.79,0.79,0,1,1,8,10.56,0.79,0.79,0,0,1,7.25,11.35Zm5,2.34A0.69,0.69,0,1,1,12.91,13,0.69,0.69,0,0,1,12.22,13.69Zm3.9,0.66a0.79,0.79,0,1,1,.79-0.79A0.79,0.79,0,0,1,16.12,14.35Z" transform="translate(-2 -4.5)"/></svg>